<?xml version="1.0" encoding="iso-8859-1"?><!-- Generator: Adobe Illustrator 20.1.0, SVG Export Plug-In . SVG Version: 6.00 Build 0)  --><svg xmlns="http://www.w3.org/2000/svg" xmlns:xlink="http://www.w3.org/1999/xlink" version="1.1" id="&#1057;&#1083;&#1086;&#1081;_1" x="0px" y="0px" viewBox="0 0 64 64" style="enable-background:new 0 0 64 64;" xml:space="preserve"><linearGradient id="SVGID_1__48275" gradientUnits="userSpaceOnUse" x1="36.1147" y1="21.1251" x2="36.1147" y2="26.0819" spreadMethod="reflect">	<stop offset="0" style="stop-color:#6DC7FF"/>	<stop offset="1" style="stop-color:#E6ABFF"/></linearGradient><path style="fill:url(#SVGID_1__48275);" d="M37.722,23.007c0.323,0.915-0.135,1.928-1.022,2.261s-1.869-0.139-2.193-1.054  c-0.323-0.915,0.135-1.928,1.022-2.261C36.417,21.619,37.399,22.091,37.722,23.007"/><linearGradient id="SVGID_2__48275" gradientUnits="userSpaceOnUse" x1="29.6849" y1="23.9376" x2="29.6849" y2="28.5967" spreadMethod="reflect">	<stop offset="0" style="stop-color:#6DC7FF"/>	<stop offset="1" style="stop-color:#E6ABFF"/></linearGradient><path style="fill:url(#SVGID_2__48275);" d="M31.292,25.42c0.323,0.915-0.135,1.928-1.022,2.261c-0.888,0.333-1.869-0.139-2.193-1.054  c-0.323-0.915,0.135-1.928,1.022-2.261C29.988,24.033,30.969,24.505,31.292,25.42z"/><linearGradient id="SVGID_3__48275" gradientUnits="userSpaceOnUse" x1="48.9743" y1="16.8751" x2="48.9743" y2="20.5001" spreadMethod="reflect">	<stop offset="0" style="stop-color:#6DC7FF"/>	<stop offset="1" style="stop-color:#E6ABFF"/></linearGradient><path style="fill:url(#SVGID_3__48275);" d="M50.582,18.18c0.323,0.915-0.135,1.928-1.022,2.261c-0.888,0.333-1.869-0.139-2.193-1.054  c-0.323-0.915,0.135-1.928,1.022-2.261C49.277,16.793,50.259,17.265,50.582,18.18z"/><linearGradient id="SVGID_4__48275" gradientUnits="userSpaceOnUse" x1="42.5445" y1="19.1251" x2="42.5445" y2="23.2544" spreadMethod="reflect">	<stop offset="0" style="stop-color:#6DC7FF"/>	<stop offset="1" style="stop-color:#E6ABFF"/></linearGradient><path style="fill:url(#SVGID_4__48275);" d="M44.152,20.594c0.323,0.915-0.135,1.928-1.022,2.261c-0.888,0.333-1.869-0.139-2.193-1.054  c-0.323-0.915,0.135-1.928,1.022-2.261C42.847,19.206,43.829,19.678,44.152,20.594z"/><linearGradient id="SVGID_5__48275" gradientUnits="userSpaceOnUse" x1="23.2551" y1="26.5626" x2="23.2551" y2="30.4782" spreadMethod="reflect">	<stop offset="0" style="stop-color:#6DC7FF"/>	<stop offset="1" style="stop-color:#E6ABFF"/></linearGradient><path style="fill:url(#SVGID_5__48275);" d="M24.863,27.833c0.323,0.915-0.135,1.928-1.022,2.261c-0.888,0.333-1.869-0.139-2.193-1.054  c-0.323-0.915,0.135-1.928,1.022-2.261C23.558,26.446,24.539,26.918,24.863,27.833z"/><linearGradient id="SVGID_6__48275" gradientUnits="userSpaceOnUse" x1="32" y1="6.5001" x2="32" y2="55.6353" spreadMethod="reflect">	<stop offset="0" style="stop-color:#1A6DFF"/>	<stop offset="1" style="stop-color:#C822FF"/></linearGradient><path style="fill:url(#SVGID_6__48275);" d="M57.737,17.394c-0.727-2.056-2.194-3.687-4.133-4.59c-1.882-0.878-3.99-0.959-5.933-0.23  l-12.706,4.769L21.528,9.375c-0.701-0.415-1.54-0.489-2.301-0.205l-2.744,1.03c-0.606,0.229-1.046,0.749-1.174,1.392  c-0.129,0.649,0.081,1.306,0.561,1.755l8.511,7.969l-6.599,2.477l-4.141-4.776c-1.216-1.401-3.11-1.891-4.827-1.244l-1.039,0.39  c-1.393,0.522-2.117,2.106-1.614,3.53l3.511,9.945c0.726,2.056,2.193,3.687,4.133,4.591c1.033,0.481,2.133,0.724,3.236,0.724  c0.908,0,1.818-0.164,2.695-0.493l8.802-3.304L26.99,44.867c-0.089,0.668,0.171,1.315,0.695,1.731  C28.019,46.863,28.418,47,28.824,47c0.218,0,0.437-0.039,0.648-0.118l2.743-1.029c0.752-0.282,1.34-0.885,1.613-1.655l5.335-15.031  L55.1,23.185C57.379,22.329,58.562,19.732,57.737,17.394z M19.929,11.043c0.19-0.071,0.402-0.054,0.579,0.053l1.392,0.825  l-3.303,1.24l-1.234-1.155L19.929,11.043z M20.226,14.687l3.88-1.457l8.457,5.014l-6.095,2.288L20.226,14.687z M31.945,43.528  c-0.075,0.213-0.232,0.377-0.431,0.451L29,44.923l0.225-1.702l3.263-1.225L31.945,43.528z M33.363,39.531l-3.841,1.441l1.599-12.104  c0.038-0.285,0.219-0.521,0.473-0.616l6.659-2.5L33.363,39.531z M54.397,21.312l-14.358,5.389l0.186-0.524  c0.251-0.706,0.076-1.469-0.455-1.991c-0.517-0.506-1.255-0.665-1.935-0.412l-6.944,2.606c-0.946,0.356-1.617,1.209-1.752,2.228  l-0.304,2.298l-9.803,3.679c-1.435,0.539-2.991,0.479-4.384-0.171c-1.448-0.675-2.546-1.897-3.091-3.443l-3.511-9.945  c-0.144-0.404,0.05-0.849,0.431-0.991l1.039-0.39c0.925-0.349,1.952-0.081,2.612,0.682l5.053,5.827l31.192-11.707  c1.434-0.538,2.992-0.479,4.385,0.17c1.447,0.675,2.546,1.897,3.091,3.443C56.316,19.378,55.663,20.837,54.397,21.312z"/><linearGradient id="SVGID_7__48275" gradientUnits="userSpaceOnUse" x1="32" y1="6.5001" x2="32" y2="55.6353" spreadMethod="reflect">	<stop offset="0" style="stop-color:#1A6DFF"/>	<stop offset="1" style="stop-color:#C822FF"/></linearGradient><rect x="10" y="53" style="fill:url(#SVGID_7__48275);" width="44" height="2"/></svg>